# xmcd
#
# Track frame offsets: 
#        150
#        40197
#        55642
#        75547
#        90773
#        127597
#        177864
#        209603
#        215789
#        234673
#        256270
#        297027
#        311154
#
# Disc length: 4527 seconds
#
# Revision: 0
# Processed by: cddbd v1.5.2PL0 Copyright (c) Steve Scherf et al.
# Submitted via: ExactAudioCopy v0.95b3
#
DISCID=aa11ad0d
DTITLE=David Crosby  - More Buried Treasure [CD2] - 1970  FLAC
DYEAR=1900
DGENRE=
TTITLE0=Almost Cut My Hair
TTITLE1=Song With No Words (Tree With No Leaves)
TTITLE2=Everybody's Been Burned
TTITLE3=Music Is Love
TTITLE4=Cowboy Movie [take 3]
TTITLE5=Cowboy Movie [take 4]
TTITLE6=Kids and Dogs
TTITLE7=Critical Mass
TTITLE8=What Are Their Names
TTITLE9=Dancer
TTITLE10=Tamalpais High (At About 3) Jam
TTITLE11=Have You Seen The Stars Tonite
TTITLE12=The Wall Song
EXTD=
EXTT0=
EXTT1=
EXTT2=
EXTT3=
EXTT4=
EXTT5=
EXTT6=
EXTT7=
EXTT8=
EXTT9=
EXTT10=
EXTT11=
EXTT12=
PLAYORDER=
